<?xml version="1.0" standalone="no"?>
<!DOCTYPE svg PUBLIC "-//W3C//DTD SVG 20010904//EN"
 "http://www.w3.org/TR/2001/REC-SVG-20010904/DTD/svg10.dtd">
<svg version="1.0" xmlns="http://www.w3.org/2000/svg"
 width="166.000000pt" height="232.000000pt" viewBox="0 0 166.000000 232.000000"
 preserveAspectRatio="xMidYMid meet">

<g transform="translate(0.000000,232.000000) scale(0.100000,-0.100000)"
fill="#000000" stroke="none">
<path d="M445 1954 c-198 -163 -364 -299 -369 -304 -12 -12 1 -57 20 -64 8 -3
24 -1 34 4 18 10 19 -1 22 -337 3 -334 4 -350 25 -388 52 -97 97 -115 292
-115 82 0 156 3 165 6 14 5 16 39 16 271 0 163 4 272 10 284 10 17 23 19 158
19 102 0 152 -4 160 -12 9 -9 12 -84 12 -278 0 -194 3 -269 12 -278 8 -8 60
-12 167 -12 129 0 163 4 196 19 51 23 101 79 114 128 7 23 11 169 11 371 0
330 0 333 20 322 14 -8 26 -8 41 0 49 27 28 49 -351 360 -200 165 -371 300
-380 300 -9 0 -177 -133 -375 -296z m674 -45 l292 -241 -3 -371 c-3 -328 -5
-376 -20 -403 -28 -51 -70 -64 -202 -64 l-116 0 0 245 c0 268 -3 284 -57 321
-25 17 -47 19 -193 19 -146 0 -168 -2 -193 -19 -54 -37 -57 -53 -57 -321 l0
-245 -115 0 c-126 0 -157 9 -194 56 -20 26 -21 36 -21 409 l0 382 287 237
c158 130 290 236 294 236 3 0 137 -108 298 -241z"/>
<path d="M40 245 l0 -215 25 0 c25 0 25 0 25 95 l0 95 115 0 115 0 0 -95 c0
-95 0 -95 25 -95 l25 0 0 215 0 215 -25 0 c-25 0 -25 0 -25 -95 l0 -95 -115 0
-115 0 0 95 c0 95 0 95 -25 95 l-25 0 0 -215z"/>
<path d="M540 342 c-106 -53 -106 -251 0 -304 70 -36 149 -13 190 54 29 49 28
153 -3 199 -26 39 -79 69 -122 69 -16 0 -46 -8 -65 -18z m134 -63 c33 -39 38
-101 14 -162 -14 -35 -36 -47 -86 -47 -53 0 -83 33 -90 100 -8 88 29 140 99
140 29 0 43 -7 63 -31z"/>
<path d="M911 334 c-30 -25 -31 -25 -31 -5 0 16 -6 21 -25 21 l-25 0 0 -160 0
-160 24 0 c24 0 24 1 28 119 3 135 15 161 73 161 56 0 65 -21 65 -158 l0 -122
25 0 25 0 0 114 c0 99 3 117 21 140 15 19 30 26 54 26 58 0 65 -16 65 -156 l0
-124 25 0 25 0 0 134 c0 125 -2 137 -23 161 -33 39 -91 44 -139 11 l-38 -25
-24 24 c-34 34 -84 33 -125 -1z"/>
<path d="M1420 342 c-72 -40 -100 -151 -61 -238 30 -66 89 -94 166 -80 38 8
95 50 95 72 0 21 -44 17 -65 -6 -43 -47 -145 -14 -161 53 l-6 27 121 0 121 0
0 33 c-1 44 -33 112 -64 132 -40 27 -105 30 -146 7z m127 -54 c11 -13 24 -33
28 -45 6 -23 5 -23 -90 -23 -95 0 -96 0 -90 23 11 37 52 67 94 67 26 0 44 -7
58 -22z"/>
</g>
</svg>
