<?xml version="1.0" standalone="no"?>
<!DOCTYPE svg PUBLIC "-//W3C//DTD SVG 20010904//EN"
 "http://www.w3.org/TR/2001/REC-SVG-20010904/DTD/svg10.dtd">
<svg version="1.0" xmlns="http://www.w3.org/2000/svg"
 width="266.000000pt" height="456.000000pt" viewBox="0 0 266.000000 456.000000"
 preserveAspectRatio="xMidYMid meet">

<g transform="translate(0.000000,456.000000) scale(0.100000,-0.100000)"
fill="#000000" stroke="none">
<path d="M1175 4465 c-287 -63 -507 -281 -586 -580 -29 -111 -29 -288 0 -400
67 -254 234 -450 461 -542 103 -41 193 -56 305 -49 209 11 362 82 506 232 156
164 228 365 216 606 -12 261 -129 470 -349 625 -148 104 -373 148 -553 108z
m310 -196 c236 -74 402 -300 410 -559 4 -120 -13 -202 -64 -306 -178 -360
-633 -439 -906 -156 -65 67 -120 160 -148 247 -31 100 -31 280 0 380 72 226
251 378 493 419 43 7 152 -5 215 -25z"/>
<path d="M458 2767 c-160 -55 -281 -188 -323 -355 -23 -94 -67 -499 -63 -582
9 -177 131 -313 304 -340 46 -7 370 -10 994 -8 1011 3 945 -1 1047 64 94 59
163 187 163 298 0 68 -56 531 -71 581 -18 64 -76 168 -120 213 -98 102 -214
152 -354 152 -76 0 -84 -2 -109 -26 -28 -29 -33 -67 -15 -108 15 -31 47 -43
130 -49 159 -11 271 -116 299 -278 29 -175 59 -487 50 -520 -16 -57 -46 -95
-92 -118 -44 -21 -45 -21 -977 -21 -908 0 -933 1 -970 20 -48 24 -77 60 -93
113 -18 61 42 551 77 622 55 112 149 174 282 184 94 7 120 24 129 82 5 28 1
41 -21 67 -26 32 -28 32 -113 32 -64 0 -105 -7 -154 -23z"/>
<path d="M470 510 l0 -450 50 0 50 0 0 341 c0 187 4 338 9 335 4 -3 70 -156
146 -341 l137 -335 48 0 48 0 30 73 c17 39 78 189 137 332 58 143 111 264 116
270 5 5 9 -122 9 -333 l0 -342 50 0 50 0 0 450 0 451 -66 -3 -66 -3 -43 -105
c-23 -58 -91 -223 -150 -368 -59 -144 -111 -262 -115 -262 -7 0 -79 172 -239
565 l-69 170 -66 3 -66 3 0 -451z"/>
<path d="M1725 727 c-138 -53 -210 -187 -199 -371 5 -85 44 -176 99 -229 127
-124 390 -94 465 53 l19 37 -38 12 c-55 16 -66 14 -81 -14 -37 -69 -169 -94
-255 -49 -52 27 -93 87 -101 146 l-7 48 244 2 244 3 -3 72 c-4 135 -57 229
-154 277 -43 21 -65 26 -127 25 -42 0 -90 -6 -106 -12z m172 -88 c58 -22 112
-99 113 -161 l0 -28 -190 0 -190 0 0 23 c1 32 33 98 61 123 57 51 140 68 206
43z"/>
</g>
</svg>
