<?xml version="1.0" standalone="no"?>
<!DOCTYPE svg PUBLIC "-//W3C//DTD SVG 20010904//EN"
 "http://www.w3.org/TR/2001/REC-SVG-20010904/DTD/svg10.dtd">
<svg version="1.0" xmlns="http://www.w3.org/2000/svg"
 width="556.000000pt" height="440.000000pt" viewBox="0 0 556.000000 440.000000"
 preserveAspectRatio="xMidYMid meet">

<g transform="translate(0.000000,440.000000) scale(0.100000,-0.100000)"
fill="#000000" stroke="none">
<path d="M1933 4343 c-35 -7 -67 -54 -96 -142 -68 -203 -56 -336 41 -457 22
-29 44 -68 47 -87 8 -43 -9 -133 -42 -213 -32 -76 -26 -121 18 -158 79 -67
149 0 199 191 37 144 22 278 -42 363 -18 23 -41 54 -50 69 -31 46 -22 131 30
272 17 46 19 63 11 93 -14 50 -63 79 -116 69z"/>
<path d="M2691 4325 c-34 -29 -83 -145 -100 -239 -28 -154 -3 -254 91 -364 24
-28 28 -41 28 -95 0 -41 -9 -86 -26 -132 -46 -126 -41 -190 17 -220 67 -35
113 -1 157 117 43 115 58 222 43 306 -14 75 -30 110 -78 170 -19 23 -38 54
-42 70 -12 41 -3 109 26 187 14 39 27 89 30 112 5 39 2 46 -30 78 -42 42 -74
45 -116 10z"/>
<path d="M3486 4334 c-61 -33 -120 -226 -114 -371 4 -99 28 -161 94 -243 36
-44 36 -46 31 -111 -3 -38 -19 -100 -36 -145 -37 -95 -38 -111 -8 -155 93
-138 222 27 234 298 5 110 5 113 -26 175 -17 35 -47 83 -67 108 -35 43 -36 47
-31 107 2 35 20 105 38 157 30 86 31 96 19 126 -13 33 -62 70 -90 70 -8 -1
-28 -8 -44 -16z"/>
<path d="M834 2819 c-49 -24 -69 -103 -37 -149 33 -48 40 -49 210 -50 l162 0
5 -42 c3 -24 8 -65 11 -93 35 -303 251 -586 525 -686 132 -48 199 -51 1105
-47 825 4 830 4 903 26 327 100 552 378 591 735 6 53 11 99 11 102 0 3 72 5
161 5 91 0 169 4 180 10 24 13 49 61 49 95 0 38 -24 79 -55 93 -34 16 -3789
16 -3821 1z"/>
<path d="M40 470 l0 -450 55 0 55 0 0 165 0 165 120 0 c65 0 142 5 170 11 78
17 139 63 175 133 26 52 30 70 30 140 0 107 -36 185 -107 233 -66 44 -123 53
-323 53 l-175 0 0 -450z m400 338 c69 -30 100 -84 100 -174 0 -66 -26 -123
-72 -156 -30 -21 -45 -23 -175 -26 l-143 -4 0 191 0 191 128 -4 c83 -2 139 -8
162 -18z"/>
<path d="M810 470 l0 -450 50 0 50 0 0 450 0 450 -50 0 -50 0 0 -450z"/>
<path d="M2882 473 l3 -448 53 -3 52 -3 1 343 0 343 30 -64 c16 -35 49 -114
74 -175 25 -61 75 -185 113 -276 l67 -165 50 -3 50 -2 139 340 c77 187 143
340 147 340 4 0 8 -125 8 -277 0 -153 0 -306 1 -341 l0 -63 48 3 47 3 3 448 2
447 -67 0 -68 0 -149 -368 c-82 -202 -152 -371 -156 -375 -4 -4 -18 21 -33 55
-14 35 -59 144 -100 243 -41 99 -99 240 -128 313 l-53 132 -68 0 -68 0 2 -447z"/>
<path d="M5390 470 l0 -450 50 0 50 0 0 450 0 450 -50 0 -50 0 0 -450z"/>
<path d="M4193 699 c-97 -12 -172 -73 -222 -179 -23 -49 -26 -67 -26 -165 0
-98 3 -116 26 -165 14 -30 38 -70 54 -88 87 -103 300 -122 415 -37 31 23 80
88 80 107 0 4 -21 13 -47 20 -48 14 -48 14 -68 -16 -31 -45 -65 -66 -120 -72
-123 -15 -217 56 -239 179 l-7 37 246 0 245 0 0 63 c0 213 -137 342 -337 316z
m142 -112 c44 -25 79 -80 90 -139 l7 -38 -190 0 c-105 0 -193 3 -195 8 -10 16
25 99 54 130 59 65 159 82 234 39z"/>
<path d="M1249 686 c-58 -21 -106 -55 -128 -90 -12 -18 -21 -37 -21 -43 0 -5
20 -16 43 -25 l44 -16 28 35 c35 45 80 63 154 63 53 0 65 -4 95 -31 51 -44 62
-127 19 -143 -9 -4 -65 -13 -126 -22 -191 -26 -268 -72 -282 -167 -20 -133 76
-237 219 -237 83 0 134 18 178 63 l38 39 0 -46 0 -46 50 0 50 0 0 259 0 259
-28 53 c-22 43 -38 59 -81 81 -46 24 -65 28 -135 28 -44 -1 -97 -7 -117 -14z
m256 -444 c-16 -110 -149 -172 -265 -126 -47 19 -60 38 -60 89 0 76 32 98 182
121 57 9 112 20 123 24 17 6 20 3 23 -29 2 -20 1 -55 -3 -79z"/>
<path d="M1800 360 l0 -340 49 0 50 0 3 232 c3 224 4 235 27 274 63 111 229
113 283 4 16 -30 18 -66 18 -272 l0 -238 50 0 50 0 0 258 c0 251 -1 258 -24
309 -35 75 -87 107 -182 111 -94 5 -134 -9 -184 -65 l-40 -46 0 57 0 56 -50 0
-50 0 0 -340z"/>
<path d="M4832 685 c-52 -16 -107 -57 -133 -99 -10 -17 -19 -34 -19 -37 0 -4
20 -12 45 -19 l45 -13 44 41 c53 49 76 56 158 50 53 -4 65 -9 89 -36 24 -26
29 -42 29 -81 0 -58 3 -56 -137 -76 -127 -18 -166 -28 -217 -58 -107 -61 -101
-233 11 -311 35 -24 55 -30 117 -34 93 -6 151 13 196 64 l30 35 0 -46 0 -45
55 0 55 0 0 235 c0 133 -5 256 -11 285 -14 65 -75 133 -134 149 -54 15 -170
13 -223 -4z m258 -404 c0 -83 -23 -125 -90 -159 -36 -19 -57 -23 -107 -20 -77
5 -114 29 -128 82 -19 78 35 121 183 142 53 8 102 16 107 19 31 12 35 4 35
-64z"/>
</g>
</svg>
